<?xml version="1.0" encoding="UTF-8" standalone="no"?>
<!-- Created with Inkscape (http://www.inkscape.org/) -->

<svg
   width="171.0504mm"
   height="56.894203mm"
   viewBox="0 0 171.0504 56.894203"
   version="1.1"
   id="svg1"
   xml:space="preserve"
   inkscape:version="1.4.3 (0d15f75, 2025-12-25)"
   sodipodi:docname="DRAP BUSINESS.svg"
   xmlns:inkscape="http://www.inkscape.org/namespaces/inkscape"
   xmlns:sodipodi="http://sodipodi.sourceforge.net/DTD/sodipodi-0.dtd"
   xmlns="http://www.w3.org/2000/svg"
   xmlns:svg="http://www.w3.org/2000/svg"><sodipodi:namedview
     id="namedview1"
     pagecolor="#ffffff"
     bordercolor="#000000"
     borderopacity="0.25"
     inkscape:showpageshadow="2"
     inkscape:pageopacity="0.0"
     inkscape:pagecheckerboard="0"
     inkscape:deskcolor="#d1d1d1"
     inkscape:document-units="mm"
     showguides="false"
     inkscape:zoom="1"
     inkscape:cx="180.5"
     inkscape:cy="142.5"
     inkscape:window-width="1920"
     inkscape:window-height="991"
     inkscape:window-x="-9"
     inkscape:window-y="-9"
     inkscape:window-maximized="1"
     inkscape:current-layer="layer1" /><defs
     id="defs1" /><g
     inkscape:label="Camada 1"
     inkscape:groupmode="layer"
     id="layer1"
     transform="translate(-20.313877,-5.9799966)"><path
       d="M 65.409444,6.6238851 39.434802,62.874198 h 22.174874 c 8.607065,0 15.537036,-9.612729 15.537036,-21.552689 V 27.53217 c 0,-10.120369 -4.978535,-18.5684503 -11.737268,-20.9082849 z"
       style="fill:#0e1420;fill-opacity:1;fill-rule:evenodd;stroke-width:0.205066"
       id="path3" /><path
       d="m 20.363098,5.9799967 c -0.0766,18.9658603 -0.05366,37.9282243 0,56.8942013 H 39.153682 L 62.755859,6.0373576 c -0.378431,-0.037937 -0.760546,-0.057361 -1.146183,-0.057361 z"
       style="fill:#0e1420;fill-opacity:1;fill-rule:evenodd;stroke-width:0.205066"
       id="path2" /><path
       d="m 104.719,26.542124 q 0,3.387938 -0.84698,6.151781 -0.8247,2.763844 -2.60782,4.725281 -1.760836,1.939149 -4.52468,3.009024 -2.763843,1.047586 -6.619851,1.047586 H 82.719701 V 12.343992 h 8.625866 q 3.34336,0 5.839735,0.846984 2.518664,0.824695 4.190348,2.563242 1.67167,1.738547 2.49637,4.413235 0.84698,2.674687 0.84698,6.374671 z m -5.884308,0.356625 q 0,-2.36264 -0.378914,-4.212632 Q 98.076864,20.836124 97.163013,19.565648 96.27145,18.272882 94.755794,17.60421 93.240138,16.935539 90.988942,16.935539 H 88.20281 v 19.94871 h 2.407218 q 4.034321,0 6.129492,-2.407219 2.095172,-2.407218 2.095172,-7.578281 z m 24.629418,14.577047 -4.10119,-9.361406 q -0.57952,-1.337344 -1.6271,-2.006016 -1.0253,-0.690961 -2.42951,-0.690961 h -1.04759 v 12.058383 h -5.48311 V 12.343992 h 8.49214 q 2.40722,0 4.36865,0.423492 1.96144,0.401203 3.34336,1.359633 1.38192,0.958429 2.11746,2.496375 0.75783,1.537945 0.75783,3.766851 0,1.604813 -0.46807,2.853 -0.46807,1.248188 -1.31505,2.162039 -0.84699,0.891563 -2.02831,1.448789 -1.15903,0.557227 -2.54095,0.780117 1.06987,0.222891 1.96144,1.225899 0.89156,0.980718 1.78312,2.853 l 4.65842,9.762609 z m -1.35964,-20.550515 q 0,-2.13975 -1.35963,-3.075891 -1.35963,-0.93614 -4.0789,-0.93614 h -2.40722 v 8.224663 h 2.22891 q 1.27048,0 2.29577,-0.267468 1.04759,-0.267469 1.78313,-0.802407 0.73554,-0.534937 1.13674,-1.315054 0.4012,-0.802406 0.4012,-1.827703 z m 27.83904,20.550515 -1.60481,-5.750578 h -10.16381 l -1.64939,5.750578 h -5.43853 l 8.62586,-29.131804 h 7.66744 l 8.62587,29.131804 z m -6.61985,-23.782429 -3.83372,13.551749 h 7.62286 z m 35.99683,3.922875 q 0,2.273484 -0.75782,4.212632 -0.75783,1.91686 -2.2512,3.321071 -1.49337,1.40421 -3.72227,2.184328 -2.22891,0.780117 -5.17107,0.780117 H 164.632 v 9.361406 h -5.52769 V 12.343992 h 8.53672 q 2.83071,0 4.99275,0.624094 2.18432,0.601804 3.6554,1.783125 1.49337,1.18132 2.2512,2.919867 0.78011,1.716257 0.78011,3.945164 z m -5.75057,0.378914 q 0,-1.159032 -0.37892,-2.095172 -0.35662,-0.95843 -1.11445,-1.627102 -0.73554,-0.668672 -1.87228,-1.025297 -1.13674,-0.356625 -2.69698,-0.356625 H 164.632 v 10.676461 h 3.0536 q 1.4265,0 2.51867,-0.378914 1.09216,-0.401203 1.8277,-1.136742 0.75783,-0.735539 1.13674,-1.760836 0.40121,-1.025297 0.40121,-2.295773 z"
       id="text4-9-3"
       style="font-weight:bold;font-size:45.648px;font-family:Consolas;-inkscape-font-specification:'Consolas, Bold';fill:#0e1420;stroke-width:0.888315;stroke-linecap:round;stroke-linejoin:round"
       transform="scale(1.0661507,0.93795371)"
       aria-label="DRAP" /><path
       d="M 89.73232,54.876347 V 48.18932 h -0.266814 q -0.617008,0 -0.883822,-0.233462 -0.258476,-0.241801 -0.258476,-0.625346 0,-0.383545 0.258476,-0.617007 0.266814,-0.241801 0.883822,-0.241801 h 4.2857 q 1.534181,0 2.46803,0.858808 0.933849,0.85047 0.933849,2.026119 0,0.558642 -0.216786,1.050581 -0.216786,0.491938 -0.658697,0.908835 0.80878,0.483601 1.209001,1.13396 0.408559,0.642021 0.408559,1.459139 0,0.650359 -0.291828,1.209001 -0.216786,0.425235 -0.533628,0.675373 -0.425235,0.350194 -1.042242,0.575318 -0.617008,0.216787 -1.542519,0.216787 h -5.019439 q -0.617008,0 -0.883822,-0.233463 -0.258476,-0.2418 -0.258476,-0.625345 0,-0.375207 0.266814,-0.60867 0.266814,-0.2418 0.875484,-0.2418 z m 1.709277,-4.202321 h 1.876036 q 1.008891,0 1.675926,-0.508614 0.450249,-0.341856 0.450249,-0.85047 0,-0.450249 -0.425235,-0.783767 -0.425235,-0.341855 -1.350746,-0.341855 h -2.22623 z m 0,4.202321 h 2.951631 q 1.042242,0 1.467477,-0.308504 0.325179,-0.233462 0.325179,-0.667035 0,-0.516952 -0.642021,-1.017228 -0.642021,-0.500277 -1.842684,-0.500277 H 91.441597 Z M 110.50013,48.18932 v 4.844343 q 0,1.584208 -1.1423,2.693154 -1.13396,1.108946 -2.73484,1.108946 -0.79211,0 -1.49249,-0.275152 -0.69205,-0.28349 -1.2507,-0.825456 -0.5503,-0.541966 -0.8588,-1.125622 -0.30851,-0.591994 -0.30851,-1.57587 V 48.18932 q -0.54196,0 -0.80044,-0.2418 -0.25847,-0.241801 -0.25847,-0.617008 0,-0.383545 0.25847,-0.617007 0.25848,-0.233463 0.88382,-0.233463 l 2.24291,-0.0083 q 0.61701,0 0.87548,0.241801 0.26682,0.233462 0.26682,0.617007 0,0.383545 -0.26682,0.625346 -0.25847,0.233462 -0.87548,0.233462 h -0.61701 v 4.994426 q 0,0.76709 0.63368,1.359084 0.64203,0.583655 1.54252,0.583655 0.60033,0 1.12562,-0.28349 0.52529,-0.28349 0.85881,-0.825456 0.20845,-0.341855 0.20845,-0.833793 V 48.18932 h -0.61701 q -0.617,0 -0.88382,-0.233462 -0.25847,-0.241801 -0.25847,-0.625346 0,-0.383545 0.25847,-0.617007 0.26682,-0.241801 0.88382,-0.241801 l 2.24291,0.0083 q 0.61701,0 0.87548,0.233463 0.26682,0.233462 0.26682,0.617007 0,0.375207 -0.25848,0.617008 -0.25848,0.2418 -0.80044,0.2418 z m 6.96852,7.962732 q -0.22513,0.266814 -0.36687,0.341855 -0.13341,0.07504 -0.33352,0.07504 -0.39188,0 -0.63368,-0.258476 -0.23346,-0.266814 -0.23346,-0.875484 v -1.150636 q 0,-0.617007 0.23346,-0.875483 0.2418,-0.266814 0.63368,-0.266814 0.30017,0 0.50028,0.158421 0.20845,0.158421 0.31684,0.533628 0.10839,0.366869 0.22512,0.500276 0.2418,0.258476 0.85881,0.52529 0.61701,0.266814 1.35075,0.266814 1.1423,0 1.87603,-0.533628 0.46693,-0.325179 0.46693,-0.800442 0,-0.316842 -0.22513,-0.591994 -0.22512,-0.28349 -0.73373,-0.466924 -0.33352,-0.125069 -1.4925,-0.341856 -1.40077,-0.258476 -2.11783,-0.625345 -0.71706,-0.366869 -1.13396,-1.033905 -0.4169,-0.667035 -0.4169,-1.442463 0,-1.225677 1.02557,-2.14285 1.02556,-0.925512 2.66814,-0.925512 0.6587,0 1.21734,0.150083 0.56698,0.141745 1.02556,0.441911 0.33352,-0.32518 0.66704,-0.32518 0.37521,0 0.60867,0.266814 0.2418,0.258477 0.2418,0.867146 v 1.284043 q 0,0.617007 -0.2418,0.883821 -0.23346,0.258476 -0.60867,0.258476 -0.31684,0 -0.5503,-0.191772 -0.18344,-0.141745 -0.27516,-0.56698 -0.0917,-0.425235 -0.23346,-0.60867 -0.2418,-0.316841 -0.7254,-0.533628 -0.4836,-0.216786 -1.11728,-0.216786 -0.92552,0 -1.46748,0.433573 -0.53363,0.425235 -0.53363,0.892159 0,0.316842 0.21679,0.617008 0.22512,0.291828 0.65036,0.458586 0.28349,0.116731 1.59254,0.375208 1.3174,0.258476 2.01778,0.566979 0.70873,0.308504 1.17565,0.967201 0.46693,0.658698 0.46693,1.567533 0,1.267367 -0.89216,2.026119 -1.18399,1.000553 -3.01834,1.000553 -0.70872,0 -1.38409,-0.175097 -0.66704,-0.166759 -1.30072,-0.508614 z m 16.72391,-7.962732 v 6.687027 h 1.72595 q 0.61701,0 0.87549,0.2418 0.26681,0.233463 0.26681,0.617008 0,0.375207 -0.26681,0.617007 -0.25848,0.233463 -0.87549,0.233463 h -5.16118 q -0.61701,0 -0.88382,-0.233463 -0.25848,-0.2418 -0.25848,-0.625345 0,-0.375207 0.25848,-0.60867 0.26681,-0.2418 0.88382,-0.2418 h 1.72595 V 48.18932 h -1.72595 q -0.61701,0 -0.88382,-0.233462 -0.25848,-0.241801 -0.25848,-0.625346 0,-0.383545 0.25848,-0.617007 0.26681,-0.241801 0.88382,-0.241801 l 5.16118,0.0083 q 0.61701,0 0.87549,0.233463 0.26681,0.233462 0.26681,0.617007 0,0.383545 -0.26681,0.625346 -0.25848,0.233462 -0.87549,0.233462 z m 10.37873,1.517505 v 5.169522 h 0.61701 q 0.61701,0 0.87548,0.2418 0.26682,0.233463 0.26682,0.617008 0,0.375207 -0.26682,0.617007 -0.25847,0.233463 -0.87548,0.233463 h -2.2429 q -0.61701,0 -0.88383,-0.233463 -0.25847,-0.2418 -0.25847,-0.625345 0,-0.366869 0.25847,-0.60867 0.25848,-0.2418 0.80045,-0.2418 V 48.18932 h -0.26682 q -0.61701,0 -0.88382,-0.233462 -0.25848,-0.241801 -0.25848,-0.625346 0,-0.383545 0.25848,-0.617007 0.26681,-0.241801 0.88382,-0.241801 l 1.97609,0.0083 4.36908,6.853786 V 48.18932 h -0.617 q -0.61701,0 -0.88383,-0.233462 -0.25847,-0.241801 -0.25847,-0.625346 0,-0.383545 0.25847,-0.617007 0.26682,-0.241801 0.88383,-0.241801 l 2.2429,0.0083 q 0.61701,0 0.87549,0.233463 0.26681,0.233462 0.26681,0.617007 0,0.375207 -0.25848,0.617008 -0.25847,0.2418 -0.7921,0.2418 v 8.396305 h -1.6926 z m 13.7556,2.659802 v 2.50972 h 4.36075 v -0.925511 q 0,-0.617008 0.23346,-0.875484 0.2418,-0.266814 0.62534,-0.266814 0.37521,0 0.60867,0.266814 0.2418,0.258476 0.2418,0.875484 v 2.634789 h -8.04611 q -0.61701,0 -0.88382,-0.233463 -0.25848,-0.2418 -0.25848,-0.625345 0,-0.375207 0.26682,-0.60867 0.26681,-0.2418 0.87548,-0.2418 h 0.26682 V 48.18932 h -0.26682 q -0.61701,0 -0.88382,-0.233462 -0.25848,-0.241801 -0.25848,-0.625346 0,-0.383545 0.25848,-0.617007 0.26681,-0.241801 0.88382,-0.241801 l 7.67091,0.0083 v 2.601437 q 0,0.60867 -0.23347,0.875484 -0.23346,0.258476 -0.617,0.258476 -0.38355,0 -0.62535,-0.258476 -0.23346,-0.258476 -0.23346,-0.875484 V 48.18932 h -3.98554 v 2.46803 h 1.50083 q 0,-0.667035 0.12507,-0.858808 0.25848,-0.408559 0.73374,-0.408559 0.37521,0 0.60867,0.266814 0.2418,0.258476 0.2418,0.875484 v 1.967754 q 0,0.558641 -0.13341,0.750414 -0.26681,0.391883 -0.71706,0.391883 -0.47526,0 -0.73374,-0.408559 -0.12507,-0.191772 -0.12507,-0.867146 z m 12.62999,3.785425 q -0.22512,0.266814 -0.36687,0.341855 -0.13341,0.07504 -0.33352,0.07504 -0.39188,0 -0.63368,-0.258476 -0.23346,-0.266814 -0.23346,-0.875484 v -1.150636 q 0,-0.617007 0.23346,-0.875483 0.2418,-0.266814 0.63368,-0.266814 0.30017,0 0.50028,0.158421 0.20845,0.158421 0.31684,0.533628 0.10839,0.366869 0.22513,0.500276 0.2418,0.258476 0.8588,0.52529 0.61701,0.266814 1.35075,0.266814 1.1423,0 1.87604,-0.533628 0.46692,-0.325179 0.46692,-0.800442 0,-0.316842 -0.22512,-0.591994 -0.22513,-0.28349 -0.73374,-0.466924 -0.33352,-0.125069 -1.49249,-0.341856 -1.40078,-0.258476 -2.11784,-0.625345 -0.71706,-0.366869 -1.13396,-1.033905 -0.4169,-0.667035 -0.4169,-1.442463 0,-1.225677 1.02557,-2.14285 1.02557,-0.925512 2.66814,-0.925512 0.6587,0 1.21734,0.150083 0.56698,0.141745 1.02557,0.441911 0.33351,-0.32518 0.66703,-0.32518 0.37521,0 0.60867,0.266814 0.2418,0.258477 0.2418,0.867146 v 1.284043 q 0,0.617007 -0.2418,0.883821 -0.23346,0.258476 -0.60867,0.258476 -0.31684,0 -0.5503,-0.191772 -0.18344,-0.141745 -0.27516,-0.56698 -0.0917,-0.425235 -0.23346,-0.60867 -0.2418,-0.316841 -0.7254,-0.533628 -0.4836,-0.216786 -1.11728,-0.216786 -0.92551,0 -1.46748,0.433573 -0.53363,0.425235 -0.53363,0.892159 0,0.316842 0.21679,0.617008 0.22512,0.291828 0.65036,0.458586 0.28349,0.116731 1.59254,0.375208 1.3174,0.258476 2.01779,0.566979 0.70872,0.308504 1.17565,0.967201 0.46692,0.658698 0.46692,1.567533 0,1.267367 -0.89216,2.026119 -1.18399,1.000553 -3.01833,1.000553 -0.70873,0 -1.3841,-0.175097 -0.66704,-0.166759 -1.30072,-0.508614 z m 13.37205,0 q -0.22512,0.266814 -0.36686,0.341855 -0.13341,0.07504 -0.33352,0.07504 -0.39189,0 -0.63369,-0.258476 -0.23346,-0.266814 -0.23346,-0.875484 v -1.150636 q 0,-0.617007 0.23346,-0.875483 0.2418,-0.266814 0.63369,-0.266814 0.30016,0 0.50027,0.158421 0.20845,0.158421 0.31685,0.533628 0.10839,0.366869 0.22512,0.500276 0.2418,0.258476 0.85881,0.52529 0.61701,0.266814 1.35074,0.266814 1.1423,0 1.87604,-0.533628 0.46693,-0.325179 0.46693,-0.800442 0,-0.316842 -0.22513,-0.591994 -0.22512,-0.28349 -0.73374,-0.466924 -0.33352,-0.125069 -1.49249,-0.341856 -1.40077,-0.258476 -2.11784,-0.625345 -0.71706,-0.366869 -1.13396,-1.033905 -0.41689,-0.667035 -0.41689,-1.442463 0,-1.225677 1.02556,-2.14285 1.02557,-0.925512 2.66814,-0.925512 0.6587,0 1.21734,0.150083 0.56698,0.141745 1.02557,0.441911 0.33352,-0.32518 0.66704,-0.32518 0.3752,0 0.60867,0.266814 0.2418,0.258477 0.2418,0.867146 v 1.284043 q 0,0.617007 -0.2418,0.883821 -0.23347,0.258476 -0.60867,0.258476 -0.31685,0 -0.55031,-0.191772 -0.18343,-0.141745 -0.27515,-0.56698 -0.0917,-0.425235 -0.23346,-0.60867 -0.2418,-0.316841 -0.7254,-0.533628 -0.4836,-0.216786 -1.11729,-0.216786 -0.92551,0 -1.46747,0.433573 -0.53363,0.425235 -0.53363,0.892159 0,0.316842 0.21678,0.617008 0.22513,0.291828 0.65036,0.458586 0.28349,0.116731 1.59255,0.375208 1.31739,0.258476 2.01778,0.566979 0.70873,0.308504 1.17565,0.967201 0.46692,0.658698 0.46692,1.567533 0,1.267367 -0.89215,2.026119 -1.18399,1.000553 -3.01834,1.000553 -0.70872,0 -1.3841,-0.175097 -0.66703,-0.166759 -1.30072,-0.508614 z"
       id="text5-9-4-8"
       style="font-weight:bold;font-size:17.0761px;line-height:0;font-family:Monospace;-inkscape-font-specification:'Monospace, Bold';letter-spacing:3.12473px;fill:#ed3a1c;stroke:#ed3a1c;stroke-width:0.880084;stroke-linecap:round;stroke-linejoin:round"
       aria-label="BUSINESS" /><text
       xml:space="preserve"
       style="font-weight:bold;font-size:3.88056px;line-height:0;font-family:Monospace;-inkscape-font-specification:'Monospace, Bold';letter-spacing:13.2292px;writing-mode:lr-tb;direction:ltr;fill:#00ff3a;fill-opacity:1;stroke:#c9a961;stroke-width:0.2;stroke-linecap:round;stroke-linejoin:round"
       x="110.94358"
       y="68.848633"
       id="text1"><tspan
         sodipodi:role="line"
         id="tspan1"
         style="stroke-width:0.2"
         x="110.94358"
         y="68.848633" /></text></g><g
     inkscape:groupmode="layer"
     id="layer2"
     inkscape:label="Camada 2"
     transform="translate(-20.313877,-5.9799966)" /></svg>
