<?xml version="1.0"?>


<svg width="170.86879mm" height="56.894203mm" viewBox="0 0 170.86879 56.894203" version="1.1" id="svg1" xml:space="preserve" xmlns:inkscape="http://www.inkscape.org/namespaces/inkscape" xmlns:sodipodi="http://sodipodi.sourceforge.net/DTD/sodipodi-0.dtd" xmlns="http://www.w3.org/2000/svg" xmlns:svg="http://www.w3.org/2000/svg"><namedview id="namedview1" pagecolor="#ffffff" bordercolor="#000000" borderopacity="0.25" showguides="true"></namedview><defs id="defs1"></defs><g id="layer1" transform="translate(-20.313877,-5.9799966)"><path d="M 65.409444,6.6238851 39.434802,62.874198 h 22.174874 c 8.607065,0 15.537036,-9.612729 15.537036,-21.552689 V 27.53217 c 0,-10.120369 -4.978535,-18.5684503 -11.737268,-20.9082849 z" style="fill:#0E1421;fill-opacity:1;fill-rule:evenodd;stroke-width:0.205066" id="path3"></path><path d="m 20.363098,5.9799967 c -0.0766,18.9658603 -0.05366,37.9282243 0,56.8942013 H 39.153682 L 62.755859,6.0373576 c -0.378431,-0.037937 -0.760546,-0.057361 -1.146183,-0.057361 z" style="fill:#0E1421;fill-opacity:1;fill-rule:evenodd;stroke-width:0.205066" id="path2"></path><path d="m 111.64624,34.082147 q 0,3.177729 -0.90301,5.770086 -0.87926,2.592358 -2.78033,4.432095 -1.87732,1.818832 -4.82399,2.822325 -2.94668,0.982587 -7.057762,0.982587 H 88.191667 V 20.764956 h 9.196473 q 3.56453,0 6.22604,0.794432 2.68527,0.773526 4.46754,2.404203 1.78225,1.630676 2.66151,4.13941 0.90301,2.508732 0.90301,5.979146 z m -6.27356,0.334498 q 0,-2.216047 -0.40398,-3.951254 -0.40398,-1.735208 -1.37829,-2.926856 -0.95054,-1.212554 -2.56645,-1.839738 -1.615922,-0.627182 -4.016036,-0.627182 h -2.970436 v 18.710966 h 2.566457 q 4.301195,0 6.534965,-2.25786 2.23377,-2.257859 2.23377,-7.108076 z m 26.25867,13.672595 -4.37249,-8.780565 q -0.61785,-1.254367 -1.73473,-1.881551 -1.09313,-0.648089 -2.59023,-0.648089 h -1.11689 V 48.08924 h -5.84582 V 20.764956 h 9.0539 q 2.56646,0 4.65764,0.397216 2.09119,0.37631 3.56453,1.275273 1.47333,0.898962 2.25753,2.341484 0.80796,1.442521 0.80796,3.533132 0,1.50524 -0.49903,2.675982 -0.49904,1.170743 -1.40204,2.027893 -0.90302,0.836244 -2.16249,1.358897 -1.2357,0.522653 -2.70903,0.731713 1.14064,0.209062 2.09119,1.149837 0.95053,0.919868 1.90107,2.675982 l 4.96658,9.156875 z m -1.44958,-19.275432 q 0,-2.006986 -1.44957,-2.885043 -1.44957,-0.878056 -4.34873,-0.878056 h -2.56646 v 7.714353 h 2.37636 q 1.35452,0 2.44764,-0.250873 1.11688,-0.250873 1.90108,-0.75262 0.7842,-0.501746 1.21194,-1.23346 0.42774,-0.75262 0.42774,-1.714301 z m 29.68061,19.275432 -1.71097,-5.393776 h -10.83615 l -1.7585,5.393776 h -5.7983 l 9.19647,-27.324284 h 8.17465 l 9.19648,27.324284 z m -7.05776,-22.306817 -4.08732,12.710913 h 8.12711 z m 38.37805,3.679475 q 0,2.132422 -0.80795,3.951253 -0.80797,1.797926 -2.40012,3.115011 -1.59216,1.317084 -3.9685,2.048799 -2.37636,0.731714 -5.51314,0.731714 h -2.97044 v 8.780565 h -5.89335 V 20.764956 h 9.10143 q 3.01796,0 5.32303,0.585372 2.32881,0.564464 3.8972,1.672488 1.59216,1.108024 2.40012,2.7387 0.83172,1.60977 0.83172,3.700382 z m -6.13098,0.355403 q 0,-1.087118 -0.40398,-1.965174 -0.38021,-0.898963 -1.18818,-1.526146 -0.78419,-0.627184 -1.99613,-0.961681 -1.21193,-0.334498 -2.87539,-0.334498 h -3.06549 v 10.014026 h 3.2556 q 1.52086,0 2.68528,-0.355404 1.16441,-0.37631 1.94861,-1.066211 0.80796,-0.689902 1.21193,-1.651583 0.42775,-0.961681 0.42775,-2.153329 z" id="text4-9-3" style="font-weight:bold;font-size:45.648px;font-family:Consolas;-inkscape-font-specification:&#39;Consolas, Bold&#39;;fill:#0E1421;fill-opacity:1;stroke-width:0.888315;stroke-linecap:round;stroke-linejoin:round" aria-label="DRAP"></path><text xml:space="preserve" style="font-weight:bold;font-size:3.88056px;line-height:0;font-family:Monospace;-inkscape-font-specification:&#39;Monospace, Bold&#39;;letter-spacing:13.2292px;writing-mode:lr-tb;direction:ltr;fill:#00ff3a;fill-opacity:1;stroke:#c9a961;stroke-width:0.2;stroke-linecap:round;stroke-linejoin:round" x="110.94358" y="68.848633" id="text1"><tspan id="tspan1" style="stroke-width:0.2" x="110.94358" y="68.848633"></tspan></text></g><g id="layer2" transform="translate(-20.313877,-5.9799966)"></g></svg>