<svg width="171.0504" height="56.894203" viewBox="0 0 171.0504 56.894203" xmlns="http://www.w3.org/2000/svg">
  <g transform="translate(-20.313877,-5.9799966)">
    <path d="M 65.409444,6.6238851 39.434802,62.874198 h 22.174874 c 8.607065,0 15.537036,-9.612729 15.537036,-21.552689 V 27.53217 c 0,-10.120369 -4.978535,-18.5684503 -11.737268,-20.9082849 z" fill="#fbfbf2"/>
    <path d="m 20.363098,5.9799967 c -0.0766,18.9658603 -0.05366,37.9282243 0,56.8942013 H 39.153682 L 62.755859,6.0373576 c -0.378431,-0.037937 -0.760546,-0.057361 -1.146183,-0.057361 z" fill="#fbfbf2"/>
    <path d="m 104.719,26.542124 q 0,3.387938 -0.84698,6.151781 -0.8247,2.763844 -2.60782,4.725281 -1.760836,1.939149 -4.52468,3.009024 -2.763843,1.047586 -6.619851,1.047586 H 82.719701 V 12.343992 h 8.625866 q 3.34336,0 5.839735,0.846984 2.518664,0.824695 4.190348,2.563242 1.67167,1.738547 2.49637,4.413235 0.84698,2.674687 0.84698,6.374671 z m -5.884308,0.356625 q 0,-2.36264 -0.378914,-4.212632 Q 98.076864,20.836124 97.163013,19.565648 96.27145,18.272882 94.755794,17.60421 93.240138,16.935539 90.988942,16.935539 H 88.20281 v 19.94871 h 2.407218 q 4.034321,0 6.129492,-2.407219 2.095172,-2.407218 2.095172,-7.578281 z m 24.629418,14.577047 -4.10119,-9.361406 q -0.57952,-1.337344 -1.6271,-2.006016 -1.0253,-0.690961 -2.42951,-0.690961 h -1.04759 v 12.058383 h -5.48311 V 12.343992 h 8.49214 q 2.40722,0 4.36865,0.423492 1.96144,0.401203 3.34336,1.359633 1.38192,0.958429 2.11746,2.496375 0.75783,1.537945 0.75783,3.766851 0,1.604813 -0.46807,2.853 -0.46807,1.248188 -1.31505,2.162039 -0.84699,0.891563 -2.02831,1.448789 -1.15903,0.557227 -2.54095,0.780117 1.06987,0.222891 1.96144,1.225899 0.89156,0.980718 1.78312,2.853 l 4.65842,9.762609 z m -1.35964,-20.550515 q 0,-2.13975 -1.35963,-3.075891 -1.35963,-0.93614 -4.0789,-0.93614 h -2.40722 v 8.224663 h 2.22891 q 1.27048,0 2.29577,-0.267468 1.04759,-0.267469 1.78313,-0.802407 0.73554,-0.534937 1.13674,-1.315054 0.4012,-0.802406 0.4012,-1.827703 z m 27.83904,20.550515 -1.60481,-5.750578 h -10.16381 l -1.64939,5.750578 h -5.43853 l 8.62586,-29.131804 h 7.66744 l 8.62587,29.131804 z m -6.61985,-23.782429 -3.83372,13.551749 h 7.62286 z m 35.99683,3.922875 q 0,2.273484 -0.75782,4.212632 -0.75783,1.91686 -2.2512,3.321071 -1.49337,1.40421 -3.72227,2.184328 -2.22891,0.780117 -5.17107,0.780117 H 164.632 v 9.361406 h -5.52769 V 12.343992 h 8.53672 q 2.83071,0 4.99275,0.624094 2.18432,0.601804 3.6554,1.783125 1.49337,1.18132 2.2512,2.919867 0.78011,1.716257 0.78011,3.945164 z m -5.75057,0.378914 q 0,-1.159032 -0.37892,-2.095172 -0.35662,-0.95843 -1.11445,-1.627102 -0.73554,-0.668672 -1.87228,-1.025297 -1.13674,-0.356625 -2.69698,-0.356625 H 164.632 v 10.676461 h 3.0536 q 1.4265,0 2.51867,-0.378914 1.09216,-0.401203 1.8277,-1.136742 0.75783,-0.735539 1.13674,-1.760836 0.40121,-1.025297 0.40121,-2.295773 z" fill="#fbfbf2" transform="scale(1.0661507,0.93795371)"/>
  </g>
</svg>
